<?xml version="1.0" standalone="no"?>
<!DOCTYPE svg PUBLIC "-//W3C//DTD SVG 20010904//EN"
 "http://www.w3.org/TR/2001/REC-SVG-20010904/DTD/svg10.dtd">
<svg version="1.0" xmlns="http://www.w3.org/2000/svg"
 width="1200.000000pt" height="1200.000000pt" viewBox="0 0 1200.000000 1200.000000"
 preserveAspectRatio="xMidYMid meet">

<g transform="translate(0.000000,1200.000000) scale(0.100000,-0.100000)"
fill="#000000" stroke="none">
<path d="M5785 11964 c-772 -29 -1517 -205 -2225 -524 -661 -299 -1338 -778
-1814 -1285 -553 -589 -912 -1120 -1190 -1762 -351 -812 -510 -1617 -493
-2503 8 -392 36 -679 103 -1025 137 -707 427 -1443 812 -2055 253 -402 544
-757 923 -1125 456 -442 1062 -853 1659 -1123 649 -294 1310 -463 2005 -513
362 -26 921 -12 1230 31 640 90 1156 240 1710 497 371 172 727 386 1075 648
801 604 1398 1343 1799 2227 308 680 475 1301 543 2023 20 214 17 854 -5 1075
-62 613 -185 1124 -402 1665 -315 784 -729 1403 -1371 2050 -194 194 -345 326
-569 495 -642 482 -1292 801 -2057 1010 -294 81 -742 159 -1023 179 -158 11
-573 20 -710 15z m918 -369 c19 -39 12 -68 -21 -98 -17 -15 -21 -36 -27 -135
-12 -198 -20 -249 -50 -292 -40 -57 -94 -80 -191 -80 -96 0 -159 19 -203 62
-60 59 -65 77 -58 233 4 78 10 168 13 201 l6 59 69 -3 69 -4 0 -43 c0 -24 -5
-100 -11 -168 -12 -151 -4 -199 41 -222 69 -36 146 -4 156 65 6 48 23 267 24
313 l0 37 60 0 c65 0 72 6 39 36 l-20 18 33 28 c43 36 51 35 71 -7z m-755 -69
c38 -20 72 -70 72 -107 0 -22 -6 -28 -31 -33 -69 -13 -98 -8 -113 23 -9 16
-23 31 -31 35 -47 18 -95 -8 -95 -51 0 -28 32 -44 125 -63 75 -15 106 -31 138
-70 52 -61 44 -155 -16 -206 -49 -41 -95 -56 -177 -58 -127 -2 -209 45 -224
129 -4 21 -6 38 -4 40 2 1 33 6 69 9 l66 7 13 -31 c23 -56 92 -69 135 -25 22
21 23 27 14 49 -12 26 -33 35 -129 56 -70 15 -132 51 -150 86 -8 15 -15 49
-14 75 1 102 93 162 239 156 51 -2 92 -10 113 -21z m-844 -65 c21 -5 52 -22
68 -38 33 -31 63 -82 54 -91 -3 -3 -34 -11 -69 -17 -61 -12 -63 -11 -90 14
-37 34 -106 37 -138 4 -30 -30 -36 -110 -15 -193 29 -112 64 -143 137 -121 33
10 44 20 57 51 15 33 22 39 57 44 22 4 55 9 73 12 30 6 32 4 32 -22 -1 -54
-36 -112 -87 -144 -61 -39 -102 -50 -186 -50 -108 0 -160 36 -217 150 -17 32
-24 69 -28 131 -4 76 -2 93 18 133 52 109 198 168 334 137z m2114 -55 c216
-49 262 -80 270 -182 5 -66 -26 -137 -72 -165 -38 -23 -115 -25 -201 -5 -39
10 -62 11 -66 5 -3 -6 -14 -46 -24 -90 -11 -47 -23 -79 -31 -79 -31 0 -117 25
-120 35 -4 10 83 424 102 488 7 22 14 22 142 -7z m-2701 -125 c107 -54 170
-196 148 -336 -5 -38 -16 -58 -53 -97 -26 -28 -62 -58 -82 -68 -50 -25 -145
-43 -189 -35 -117 21 -204 136 -217 289 -5 55 -3 67 28 126 30 59 39 68 103
102 38 20 81 39 95 42 48 8 128 -2 167 -23z m3181 -6 c28 -9 54 -19 56 -24 3
-5 -7 -52 -23 -105 l-29 -96 80 -25 c43 -14 81 -25 83 -25 2 0 17 45 34 99
l31 100 63 -21 c34 -11 65 -23 69 -27 4 -3 -22 -96 -57 -206 -36 -110 -70
-216 -75 -235 -18 -63 -20 -64 -91 -40 -35 12 -65 23 -67 24 -1 2 11 45 28 95
16 51 30 96 30 101 0 9 -105 49 -139 52 -21 3 -26 -5 -50 -87 -23 -77 -30 -90
-50 -93 -26 -4 -109 16 -116 28 -5 9 100 354 150 488 6 15 11 15 73 -3z
m-3750 -156 c8 -12 28 -56 46 -98 18 -42 61 -138 95 -213 33 -76 61 -140 61
-143 0 -11 -111 -57 -123 -52 -7 3 -30 45 -52 95 -43 102 -29 97 -142 45 l-61
-28 44 -99 c25 -54 44 -99 42 -100 -13 -9 -110 -46 -120 -46 -13 0 -218 440
-218 466 0 10 23 22 117 61 6 2 14 -5 18 -16 3 -12 22 -55 41 -95 l34 -75 77
34 c57 25 77 39 75 51 -2 9 -19 53 -39 97 -20 45 -32 83 -27 84 5 2 29 14 54
28 56 30 62 30 78 4z m4507 -157 c65 -34 70 -40 73 -73 3 -38 -44 -519 -52
-526 -2 -3 -33 10 -68 29 l-63 33 3 55 3 55 -91 49 -92 48 -37 -36 c-20 -20
-41 -36 -46 -36 -21 0 -115 54 -112 64 4 11 398 374 407 375 3 0 37 -16 75
-37z m484 -269 l89 -66 -20 -51 c-54 -134 -99 -258 -96 -266 2 -4 60 43 130
106 l127 115 88 -62 c48 -34 90 -64 92 -65 4 -4 -288 -428 -297 -432 -4 -1
-29 13 -55 32 l-47 34 74 108 c42 60 94 138 116 173 l41 63 -43 -31 c-23 -17
-97 -78 -165 -135 l-122 -105 -55 36 -54 36 30 81 c68 180 118 327 110 322 -4
-2 -50 -66 -102 -142 -52 -75 -104 -148 -116 -162 l-21 -25 -47 32 c-26 18
-45 38 -43 44 7 18 289 427 294 427 2 0 43 -30 92 -67z m-5686 -100 c52 -82
113 -181 137 -221 48 -82 50 -74 -32 -117 l-48 -25 -24 37 c-13 21 -76 121
-140 223 l-116 184 53 33 c28 18 57 33 64 33 6 0 54 -66 106 -147z m1311 116
c14 -72 11 -77 -50 -85 -30 -3 -59 -3 -63 2 -5 5 -13 28 -18 51 l-11 42 42 10
c78 17 93 14 100 -20z m1837 -114 c792 -79 1475 -322 2135 -761 261 -173 521
-391 774 -650 724 -741 1171 -1732 1265 -2802 17 -192 19 -572 5 -747 -40
-471 -145 -922 -312 -1340 -247 -616 -590 -1138 -1053 -1600 -263 -263 -511
-458 -812 -640 -604 -365 -1212 -568 -1938 -647 -159 -17 -771 -17 -920 0
-814 94 -1473 334 -2135 777 -383 256 -780 640 -1085 1050 -408 546 -692 1182
-825 1845 -124 614 -128 1190 -14 1785 176 917 606 1731 1253 2375 381 379
733 632 1236 891 459 235 940 381 1485 448 215 27 221 27 526 29 174 1 313 -3
415 -13z m-3505 -157 c49 -34 151 -103 227 -154 l138 -92 -40 -34 c-71 -61
-83 -64 -127 -34 -21 14 -43 26 -49 26 -8 0 -109 -72 -164 -116 -2 -2 4 -24
13 -50 9 -26 16 -49 16 -50 0 -1 -26 -21 -57 -43 -43 -30 -59 -37 -65 -27 -6
11 -121 471 -130 519 -2 13 17 33 62 67 36 27 70 49 76 49 5 1 50 -27 100 -61z
m5295 5 c27 -16 49 -34 49 -42 0 -18 -39 -81 -51 -81 -7 0 -81 42 -97 55 -4 3
41 95 46 95 2 0 26 -12 53 -27z m1520 -354 c70 -55 69 -60 -10 -146 -39 -42
-70 -77 -68 -79 1 -1 62 10 135 24 l134 25 54 -54 c30 -29 54 -56 54 -60 0 -3
-60 -16 -132 -28 -73 -12 -136 -25 -139 -29 -3 -4 -18 -79 -33 -167 -15 -88
-29 -161 -30 -163 -9 -8 -136 113 -132 124 10 25 56 254 56 277 0 17 -16 4
-80 -65 -44 -48 -89 -90 -100 -93 -14 -4 -29 5 -57 36 -21 23 -38 46 -38 51 0
8 335 376 344 377 2 1 21 -13 42 -30z m-7207 -23 c56 -33 123 -107 148 -163
43 -98 5 -183 -153 -339 l-110 -108 -83 83 c-78 78 -85 82 -105 69 -20 -11
-24 -11 -37 6 -12 17 -12 23 0 42 14 20 13 24 -11 45 -14 13 -48 50 -76 82
l-50 58 64 65 c75 76 167 149 224 176 53 25 130 18 189 -16z m626 -102 c18
-25 30 -47 28 -48 -15 -13 -97 -56 -106 -56 -11 0 -52 60 -52 77 0 8 86 72 97
73 1 0 16 -21 33 -46z m7025 -328 l48 -58 -46 -112 c-25 -61 -44 -112 -43
-113 1 -2 56 6 122 17 l119 20 38 -43 c20 -23 42 -50 47 -59 13 -22 13 -22
-204 -42 -158 -15 -172 -18 -204 -44 -19 -15 -53 -42 -77 -59 l-42 -32 -48 56
-48 56 29 20 c16 12 52 44 80 71 43 43 55 64 79 136 52 159 87 251 95 248 4
-2 29 -29 55 -62z m240 -64 c19 -39 38 -64 50 -68 12 -3 27 -14 34 -26 16 -26
1 -38 -50 -38 -42 0 -59 16 -88 83 -12 29 -29 51 -44 56 -12 5 -29 16 -37 26
-20 24 3 36 60 33 45 -3 45 -3 75 -66z m-8555 -113 l39 -22 -41 -53 c-35 -46
-45 -54 -74 -54 -45 0 -78 -16 -97 -50 -31 -51 -20 -103 34 -164 90 -103 218
-99 274 7 l20 38 -34 31 -34 31 -34 -42 -34 -41 -35 28 c-19 15 -34 31 -34 36
0 9 139 186 146 186 8 0 209 -161 212 -170 5 -13 -93 -172 -139 -224 -83 -94
-199 -122 -300 -71 -103 53 -175 142 -186 233 -4 40 -1 60 19 104 45 98 178
218 242 218 10 0 35 -10 56 -21z m-451 -484 c22 -13 119 -70 218 -125 98 -56
182 -105 186 -110 5 -4 -11 -43 -36 -86 -42 -75 -46 -79 -83 -82 -22 -2 -100
4 -174 13 -74 9 -151 15 -170 13 -33 -3 -27 -8 117 -91 84 -48 155 -92 158
-98 5 -7 -32 -85 -51 -108 -3 -3 -316 172 -430 240 l-32 19 46 81 c25 45 53
84 61 87 13 5 297 -20 391 -34 26 -4 -7 19 -130 91 -91 53 -167 99 -169 101
-5 4 51 114 57 114 1 0 20 -11 41 -25z m9381 -189 c62 -107 112 -198 110 -203
-1 -4 -20 -18 -40 -31 l-38 -22 -36 57 c-19 32 -39 63 -43 70 -6 8 -61 -18
-188 -92 -98 -57 -183 -101 -187 -99 -4 2 -21 30 -39 61 -27 47 -30 58 -18 65
8 5 88 52 179 104 91 53 167 97 169 99 2 2 -13 34 -33 71 -20 36 -36 68 -34
69 9 8 74 45 79 45 4 0 57 -87 119 -194z m170 -310 c0 -2 11 -29 25 -60 l25
-57 -91 -41 c-102 -47 -100 -41 -54 -141 15 -31 31 -57 37 -57 6 0 45 16 88
35 43 19 83 35 89 35 12 0 61 -94 61 -116 0 -6 -10 -16 -22 -22 -13 -5 -118
-55 -235 -110 l-212 -100 -31 64 c-16 35 -30 66 -30 68 0 2 43 23 95 47 84 37
94 45 89 63 -9 28 -63 136 -69 136 -2 0 -40 -16 -85 -36 -45 -19 -89 -34 -98
-32 -9 2 -29 28 -44 58 l-27 55 122 59 c273 132 367 171 367 152z m-9933 -96
c14 -34 19 -39 37 -33 12 5 59 8 106 8 75 0 91 -3 133 -28 111 -65 157 -132
157 -229 0 -102 -56 -206 -139 -260 -43 -28 -51 -29 -126 -26 -124 7 -230 70
-276 164 -39 81 -13 210 61 304 25 32 28 39 16 50 -11 8 -20 8 -35 1 -27 -15
-28 -15 -40 20 -21 61 -17 69 40 69 50 0 51 -1 66 -40z m-107 -93 c0 -22 -52
-63 -118 -92 -34 -15 -65 -25 -68 -22 -3 3 7 30 23 59 25 48 32 54 68 59 70
11 95 10 95 -4z m10295 -411 c8 -19 16 -49 17 -67 l3 -32 -160 -53 c-130 -44
-165 -60 -189 -85 -24 -27 -27 -38 -23 -72 3 -22 14 -52 25 -66 32 -44 77 -40
254 24 86 30 160 55 165 55 8 0 56 -131 50 -136 -13 -11 -321 -116 -354 -121
-128 -17 -253 124 -253 287 0 32 5 71 11 87 13 35 55 80 94 100 39 21 304 111
328 112 11 1 23 -12 32 -33z m-10420 -53 c11 -18 25 -32 31 -33 6 0 84 -22
173 -49 173 -52 198 -66 233 -135 17 -33 20 -53 16 -120 -10 -184 -123 -298
-263 -267 -38 8 -320 90 -332 96 -2 1 28 139 32 143 1 2 80 -20 175 -47 196
-58 219 -58 258 0 18 25 22 43 18 68 -9 60 -33 74 -214 126 -92 26 -170 51
-175 54 -4 4 -1 29 8 56 8 27 12 51 10 54 -3 2 -17 -1 -31 -8 -15 -6 -28 -10
-29 -9 -1 2 -12 22 -24 45 -20 40 -20 43 -3 52 9 6 35 10 57 8 33 -2 43 -8 60
-34z m10347 -658 c134 -25 254 -49 268 -53 20 -7 26 -18 37 -73 20 -106 22
-101 -69 -159 -46 -29 -112 -72 -148 -95 -166 -107 -232 -146 -237 -141 -7 6
-33 115 -33 136 0 9 20 26 45 40 25 14 45 25 45 26 0 11 -41 198 -45 204 -2 4
-27 10 -54 14 l-50 7 -11 57 c-6 31 -13 63 -15 70 -6 17 -2 17 267 -33z
m-10383 -1 c43 -9 78 -44 91 -95 l12 -43 13 30 c16 38 40 44 171 44 69 0 94
-3 94 -12 -1 -7 -7 -40 -13 -73 l-13 -60 -89 0 c-50 0 -95 -4 -102 -8 -12 -8
-33 -69 -33 -98 0 -13 20 -20 87 -32 47 -9 90 -20 95 -25 4 -4 2 -37 -5 -74
l-12 -65 -255 50 c-140 27 -256 51 -258 52 -2 2 11 72 28 156 31 156 50 202
97 239 27 21 42 24 92 14z m10780 -66 c48 -32 61 -55 61 -108 0 -17 -75 -110
-90 -110 -4 0 -10 19 -14 42 -6 34 -3 45 13 62 20 19 20 20 -9 53 -29 33 -42
93 -20 93 6 0 32 -15 59 -32z m-665 -165 c4 -27 9 -55 12 -64 4 -13 -8 -18
-55 -26 l-59 -9 -7 45 c-3 25 -9 56 -12 68 -5 23 9 29 78 32 36 1 37 1 43 -46z
m640 -330 c7 -55 36 -379 36 -405 0 -15 -9 -18 -49 -18 -48 0 -48 0 -55 38 -3
20 -6 54 -6 74 0 20 -4 39 -9 42 -5 3 -80 -1 -167 -9 -88 -8 -180 -15 -206
-15 l-46 0 -7 65 c-4 36 -6 68 -3 70 2 2 82 11 178 20 96 8 190 18 208 21 l34
5 -7 69 c-4 38 -4 74 0 79 3 6 26 11 49 11 l43 0 7 -47z m-10888 -42 l-6 -78
41 -7 c30 -5 354 -36 378 -36 6 0 -7 -141 -13 -148 -3 -3 -77 2 -163 11 -87
10 -182 17 -210 17 l-53 0 0 -52 c0 -90 -5 -98 -61 -98 l-49 0 0 38 c0 45 30
402 36 420 2 7 22 12 55 12 l52 0 -7 -79z m161 -761 c8 0 28 -14 44 -31 51
-55 35 -150 -32 -185 -50 -25 -87 -18 -130 25 -47 46 -52 89 -16 142 22 34 79
62 105 53 8 -2 20 -4 29 -4z m10561 -14 c33 -18 62 -66 62 -101 0 -40 -32 -90
-71 -110 -43 -23 -94 -12 -131 27 -51 55 -31 161 36 188 31 13 78 11 104 -4z
m-10333 -653 c3 -21 8 -46 9 -55 4 -19 -21 -26 -199 -58 -121 -21 -145 -37
-145 -92 0 -31 16 -68 34 -80 19 -13 66 -9 208 19 75 15 139 25 142 22 3 -2 6
-29 8 -58 l3 -54 -122 -22 c-209 -39 -212 -39 -263 -12 -68 36 -95 90 -95 193
0 72 3 84 27 115 14 19 43 43 65 52 28 13 236 57 315 66 4 1 10 -16 13 -36z
m10275 -44 c96 -23 176 -42 178 -44 5 -4 -20 -133 -28 -145 -4 -6 -75 -22
-159 -36 -215 -35 -216 -36 -86 -67 61 -15 129 -29 153 -33 23 -4 45 -11 48
-15 3 -5 2 -29 -2 -54 -8 -57 -5 -57 -249 3 -215 54 -207 48 -180 147 l16 62
136 23 c74 12 154 27 177 34 l41 12 -112 22 c-170 34 -216 50 -208 70 3 9 9
30 12 46 6 27 8 28 47 22 23 -4 120 -25 216 -47z m-10175 -406 c10 -38 20 -73
22 -78 2 -6 -47 -52 -109 -102 -62 -50 -124 -101 -138 -112 -14 -11 -20 -20
-14 -21 6 0 73 18 148 40 75 22 142 40 150 40 10 0 36 -59 36 -83 0 -6 -67
-28 -325 -106 -55 -16 -103 -27 -107 -23 -4 4 -16 39 -27 79 l-19 72 26 17
c45 29 251 198 247 202 -2 2 -68 -15 -147 -38 -79 -23 -147 -43 -152 -44 -5 0
-17 20 -27 46 l-18 47 42 15 c53 19 368 114 383 115 6 1 19 -29 29 -66z
m10091 -56 c98 -49 131 -111 122 -223 -8 -92 -81 -174 -168 -189 -88 -15 -230
44 -277 114 -46 69 -21 225 47 286 57 51 187 57 276 12z m-9955 -370 l19 -48
-32 -13 c-18 -8 -113 -44 -211 -82 -137 -52 -180 -65 -187 -55 -17 29 -34 95
-25 98 6 2 96 37 200 78 105 41 196 73 204 72 7 -1 22 -24 32 -50z m9663 -41
c61 -24 155 -60 208 -80 l97 -38 -15 -41 c-8 -23 -16 -47 -19 -54 -3 -9 -31
-3 -97 21 -109 40 -331 126 -335 130 -4 4 40 106 45 106 3 0 55 -20 116 -44z
m-9614 -91 l22 -55 -20 -17 c-11 -10 -68 -58 -126 -107 -59 -49 -104 -91 -101
-94 2 -3 77 3 165 13 157 18 161 18 175 -1 20 -26 30 -63 19 -74 -9 -9 -302
-40 -407 -43 l-58 -2 -25 60 -24 59 22 22 c34 33 330 294 333 294 1 0 13 -25
25 -55z m9496 -11 l33 -16 -25 -50 c-14 -28 -23 -56 -21 -62 3 -7 75 -44 161
-82 124 -54 156 -73 156 -88 0 -22 -31 -96 -40 -96 -3 0 -77 32 -163 70 -86
39 -161 70 -165 70 -5 0 -19 -22 -32 -50 -25 -54 -35 -58 -80 -35 l-29 15 33
78 c19 42 48 109 66 147 17 39 36 80 41 93 10 26 20 27 65 6z m-9297 -426 c19
-35 61 -107 93 -161 32 -55 58 -102 58 -106 0 -7 -71 -44 -75 -39 -1 2 -25 44
-53 93 -76 134 -72 131 -110 111 -17 -9 -34 -20 -37 -26 -3 -5 19 -55 49 -109
31 -54 56 -102 56 -105 0 -3 -14 -13 -32 -22 -37 -19 -35 -22 -105 99 -26 43
-50 80 -55 83 -4 3 -25 -5 -47 -18 l-39 -23 64 -110 c35 -61 64 -113 64 -117
0 -3 -15 -15 -34 -26 l-35 -21 -47 82 c-26 45 -70 119 -97 165 -27 46 -46 86
-43 90 12 12 371 220 381 221 6 1 26 -27 44 -61z m9321 -75 c96 -14 177 -27
179 -29 2 -2 -9 -28 -24 -59 -20 -38 -33 -54 -44 -51 -69 18 -69 18 -98 -26
-14 -24 -33 -60 -41 -81 -15 -38 -15 -38 16 -69 l31 -31 -25 -49 c-14 -27 -29
-46 -35 -42 -5 3 -79 85 -163 181 l-154 175 31 60 31 60 61 -6 c33 -4 139 -18
235 -33z m-9088 -336 c77 -115 88 -140 88 -190 0 -39 -5 -49 -37 -77 -30 -27
-42 -31 -72 -27 -20 3 -44 8 -53 12 -15 6 -18 2 -18 -22 0 -22 -15 -44 -69
-97 l-69 -68 -36 48 c-19 27 -36 52 -36 55 0 3 25 26 55 50 43 34 55 50 55 72
0 27 -25 77 -39 77 -4 0 -35 -21 -70 -46 -50 -36 -65 -43 -77 -34 -17 15 -58
80 -53 85 12 11 364 245 369 245 4 0 32 -37 62 -83z m8762 43 c5 -5 -3 -27
-23 -58 -27 -42 -35 -48 -59 -44 -41 6 -82 -30 -82 -73 0 -92 198 -208 253
-147 25 27 31 68 14 92 -14 20 -13 26 16 72 l31 50 33 -36 c27 -30 33 -44 33
-82 0 -64 -33 -126 -99 -186 -54 -49 -56 -50 -104 -45 -139 17 -277 138 -277
243 0 79 47 159 120 206 38 25 52 29 90 24 24 -4 48 -10 54 -16z m-214 -407
c90 -72 125 -107 141 -140 41 -85 10 -180 -85 -257 -28 -23 -49 -31 -94 -34
-56 -4 -58 -3 -127 50 -122 92 -205 161 -205 170 0 5 12 26 27 46 15 20 28 39
30 41 1 2 34 -23 73 -55 98 -82 200 -154 218 -154 24 0 82 66 82 93 0 35 -28
67 -142 158 -55 45 -102 87 -105 95 -6 15 42 84 58 84 6 0 64 -43 129 -97z
m-8348 59 c15 -10 41 -35 59 -57 64 -81 76 -149 33 -200 l-25 -30 -33 38 c-30
33 -33 43 -29 78 4 29 1 44 -12 59 -21 23 -34 25 -59 7 -18 -13 -18 -17 8 -93
34 -104 34 -162 0 -203 -37 -44 -95 -58 -146 -35 -71 32 -157 148 -158 212 0
13 14 44 31 68 l31 45 34 -38 c31 -36 33 -41 28 -89 -5 -44 -3 -55 15 -73 25
-25 54 -27 72 -5 11 13 9 29 -14 97 -38 114 -37 157 8 202 31 30 42 35 83 35
28 0 58 -7 74 -18z m265 -337 c-1 -5 -75 -74 -165 -153 l-165 -142 -32 37
c-18 21 -33 41 -34 45 -1 7 165 157 289 261 l45 38 31 -38 c17 -21 31 -42 31
-48z m363 -394 c0 -14 -9 -58 -21 -99 -11 -40 -18 -76 -15 -79 3 -3 48 12 101
33 l96 38 41 -42 c23 -23 40 -43 38 -45 -3 -2 -70 -23 -150 -47 l-145 -43 -61
-64 -62 -65 -38 33 c-22 18 -41 34 -43 36 -5 3 13 28 62 87 36 42 41 56 68
188 15 78 27 144 25 146 -2 2 -14 -3 -25 -10 -19 -12 -25 -9 -60 32 l-39 45
-44 -40 c-23 -22 -84 -79 -133 -128 l-91 -87 -37 34 c-20 18 -37 38 -37 43 0
5 56 65 125 133 69 68 125 127 125 131 0 4 -15 20 -34 34 -48 37 -52 53 -19
87 l28 30 173 -178 c129 -134 172 -184 172 -203z m7415 328 c22 -12 59 -40 83
-62 94 -92 102 -174 27 -275 -52 -69 -149 -166 -163 -161 -5 2 -79 69 -165
149 -119 110 -153 148 -147 160 17 32 198 198 221 203 57 11 106 6 144 -14z
m-376 -265 c12 -15 21 -30 21 -33 0 -4 -43 -43 -95 -86 -52 -44 -95 -81 -95
-83 0 -15 45 -62 59 -62 10 0 55 32 100 70 46 39 86 70 90 69 3 0 16 -13 29
-29 l22 -28 -62 -55 c-35 -30 -76 -66 -93 -80 l-30 -26 37 -38 38 -37 47 46
c27 25 70 62 97 82 l49 37 26 -25 c25 -25 25 -25 5 -47 -16 -18 -90 -83 -247
-218 -17 -14 -22 -11 -68 39 -103 115 -241 279 -241 287 0 9 273 242 284 243
4 0 16 -12 27 -26z m-6491 -465 c130 -74 150 -225 46 -348 -98 -116 -224 -120
-332 -10 -47 48 -67 103 -57 158 15 80 88 178 160 215 50 26 122 20 183 -15z
m6039 10 c52 -25 103 -85 138 -162 24 -51 25 -60 14 -98 -17 -57 -95 -139
-183 -194 -40 -25 -77 -45 -83 -45 -12 0 -243 344 -243 360 0 13 184 134 225
148 47 16 85 14 132 -9z m-5644 -268 c42 -25 77 -49 77 -54 0 -4 -7 -19 -16
-33 -20 -29 -33 -27 -116 22 l-58 33 -30 -44 -30 -44 70 -43 c38 -24 70 -47
70 -51 0 -13 -32 -57 -42 -57 -5 0 -37 16 -69 35 -33 19 -63 35 -67 35 -4 0
-23 -28 -42 -61 -19 -33 -38 -66 -42 -71 -6 -11 -98 36 -98 49 0 7 16 34 149
261 l73 123 46 -27 c26 -15 82 -48 125 -73z m5265 52 c78 -126 182 -315 182
-333 0 -14 -17 -28 -61 -50 -72 -37 -51 -45 -230 95 -66 52 -123 95 -126 95
-3 0 6 -19 20 -42 13 -24 41 -74 62 -113 21 -38 47 -82 57 -97 26 -38 23 -52
-18 -71 -28 -14 -39 -15 -50 -6 -22 18 -215 361 -210 373 2 6 33 26 68 45 l65
34 114 -90 c63 -49 127 -98 144 -109 l29 -19 -41 75 c-22 41 -59 106 -82 145
l-40 70 37 22 c20 13 40 23 43 23 4 0 20 -21 37 -47z m-4857 -263 c85 -39 159
-77 165 -86 7 -8 14 -11 15 -5 3 7 334 -102 348 -115 2 -2 -1 -21 -7 -43 l-12
-39 -111 39 c-60 21 -117 39 -124 39 -17 0 -49 -70 -38 -80 5 -4 57 -24 116
-45 81 -28 107 -42 102 -52 -3 -8 -8 -26 -11 -39 -3 -13 -10 -24 -15 -24 -4 0
-52 16 -106 35 -53 20 -104 34 -112 33 -7 -2 -19 -22 -26 -44 l-12 -42 41 -12
c73 -22 196 -71 196 -79 0 -16 -22 -71 -28 -71 -13 1 -343 118 -349 124 -3 3
21 82 54 175 l60 170 -57 25 c-32 14 -61 26 -66 26 -5 0 -42 -71 -83 -158 -41
-86 -75 -158 -76 -160 -2 -3 -97 36 -103 43 -2 1 13 35 33 75 38 75 115 247
115 256 0 3 -25 16 -55 29 l-55 25 17 35 c9 19 20 35 24 35 4 0 76 -32 160
-70z m4486 -132 c90 -90 163 -166 163 -170 0 -11 -76 -48 -97 -48 -9 0 -31 13
-48 29 l-30 28 -72 -33 -73 -33 0 -51 c0 -51 0 -51 -46 -70 -25 -11 -47 -20
-49 -20 -2 0 -6 33 -9 73 -26 308 -35 412 -33 413 14 7 115 43 122 43 5 1 83
-72 172 -161z m-591 -55 c-4 -21 -21 -94 -38 -162 l-31 -124 23 -79 c12 -43
21 -80 19 -82 -7 -6 -102 -36 -105 -33 -1 1 -14 37 -28 80 -25 76 -28 80 -141
188 -63 61 -115 115 -115 119 0 4 26 15 57 24 l58 16 76 -76 77 -76 10 48 c6
27 13 70 17 95 4 25 10 51 14 58 6 10 47 25 110 40 2 1 0 -16 -3 -36z m-3064
-100 c70 -38 90 -64 96 -123 l5 -51 -29 6 c-71 16 -94 27 -94 45 0 57 -80 83
-125 40 -49 -46 -82 -202 -51 -242 32 -43 105 -45 124 -3 11 23 12 23 59 9 26
-8 51 -18 55 -22 12 -12 -32 -74 -62 -89 -34 -17 -129 -16 -181 2 -56 20 -94
57 -115 112 -43 113 43 317 144 339 15 3 32 7 37 9 22 8 93 -9 137 -32z m2577
-37 c27 -15 51 -44 64 -78 4 -13 -4 -19 -44 -28 -43 -11 -52 -10 -68 4 -28 25
-74 30 -110 11 -37 -18 -51 -49 -51 -107 0 -131 82 -204 187 -168 28 10 29 14
24 48 -6 36 -7 37 -54 40 -36 2 -47 7 -47 20 0 9 -3 27 -6 38 -5 20 1 23 73
39 43 9 88 19 99 22 20 4 23 -3 39 -89 10 -51 22 -103 26 -115 7 -20 3 -26
-39 -47 -98 -50 -215 -70 -275 -47 -39 15 -96 70 -120 115 -17 33 -22 58 -22
127 0 77 3 90 28 127 28 44 87 80 147 93 60 12 120 10 149 -5z m-2313 -50
c-23 -100 -28 -148 -16 -156 25 -15 122 -23 130 -10 4 7 13 46 20 86 l13 75
46 -7 c25 -4 51 -9 57 -13 7 -4 -2 -74 -30 -225 l-40 -218 -50 7 c-27 3 -53 8
-56 10 -4 2 0 43 8 90 8 48 12 88 9 91 -8 8 -126 28 -132 22 -3 -3 -12 -42
-20 -88 -8 -46 -16 -85 -18 -86 -5 -5 -96 12 -103 19 -5 4 61 405 70 433 3 8
20 8 61 1 50 -9 56 -13 51 -31z m1855 -47 c77 -39 112 -111 112 -229 -1 -145
-72 -219 -211 -220 -70 0 -116 16 -149 51 -71 77 -91 234 -41 320 34 57 46 68
111 90 60 21 122 17 178 -12z m-1404 -11 c11 -13 43 -110 83 -248 23 -77 40
-110 40 -74 0 33 19 247 25 281 6 32 6 32 53 26 26 -3 48 -7 49 -7 1 -1 -6
-94 -17 -207 -11 -112 -20 -212 -20 -221 0 -15 -9 -18 -57 -17 -32 1 -69 4
-82 8 -27 7 -27 8 -87 216 -44 150 -45 149 -64 -60 -7 -71 -14 -132 -15 -135
-2 -3 -24 -4 -49 -2 l-46 4 0 42 c0 48 28 349 35 384 5 20 11 22 74 22 43 0
72 -5 78 -12z m604 -45 c38 -20 54 -38 74 -76 49 -99 26 -259 -46 -323 -89
-79 -271 -48 -329 56 -22 39 -25 58 -25 135 0 73 4 98 22 130 43 80 84 103
187 104 56 1 77 -4 117 -26z m263 5 c3 -13 6 -59 6 -103 0 -44 3 -117 7 -163
l6 -83 94 7 93 7 0 -45 0 -45 -107 -6 c-58 -4 -125 -7 -149 -7 l-42 0 -6 68
c-3 37 -8 137 -12 224 l-6 156 23 5 c62 11 87 7 93 -15z"/>
<path d="M7197 11293 c-2 -4 -7 -26 -11 -48 -4 -22 -9 -48 -12 -57 -4 -13 6
-19 50 -28 61 -12 87 -5 107 31 16 30 3 66 -29 82 -35 18 -99 30 -105 20z"/>
<path d="M4335 11191 c-84 -35 -84 -201 0 -298 27 -32 39 -38 73 -38 80 0 112
37 112 128 0 69 -54 187 -94 205 -30 14 -62 15 -91 3z"/>
<path d="M8322 10787 c-40 -40 -72 -76 -72 -80 0 -9 109 -61 115 -55 6 6 37
199 33 203 -2 3 -36 -28 -76 -68z"/>
<path d="M5930 10211 c-81 -25 -157 -89 -228 -193 -43 -63 -96 -181 -143 -318
-35 -103 -41 -115 -61 -113 -13 1 -71 8 -129 17 -313 47 -551 -13 -626 -158
-70 -134 35 -385 246 -590 l40 -39 -59 -64 c-165 -176 -262 -369 -247 -494 14
-120 91 -192 248 -235 88 -24 291 -24 419 1 52 10 103 18 113 19 15 1 25 -19
53 -102 132 -402 336 -593 537 -504 128 57 253 248 343 525 l29 89 30 -7 c205
-42 435 -45 556 -6 210 67 264 230 151 456 -39 80 -116 185 -182 250 -33 33
-60 63 -60 68 0 5 23 35 52 66 171 187 263 376 244 503 -8 56 -57 133 -104
165 -120 80 -340 97 -615 49 -57 -10 -79 -10 -82 -2 -68 242 -192 474 -296
557 -72 57 -162 80 -229 60z m85 -200 c91 -41 202 -201 260 -375 26 -79 27
-106 2 -106 -7 0 -74 -22 -149 -50 l-137 -50 -128 46 c-70 25 -163 55 -205 68
l-77 22 29 81 c45 130 88 208 154 280 91 99 164 124 251 84z m-552 -486 c21
-4 37 -13 37 -21 0 -7 -11 -78 -25 -156 -14 -78 -25 -155 -25 -170 0 -19 -10
-34 -32 -51 -264 -193 -270 -198 -252 -218 9 -10 20 -19 24 -19 4 0 58 41 121
90 62 50 116 90 119 90 5 0 3 -325 -3 -372 -3 -26 -247 180 -331 278 -129 151
-178 246 -178 345 0 117 53 164 249 218 26 7 240 -3 296 -14z m1434 -6 c78
-24 145 -84 161 -143 15 -54 -2 -136 -45 -218 -41 -79 -161 -226 -201 -248
-16 -8 -28 -19 -26 -25 1 -5 -27 -35 -63 -65 -97 -81 -167 -132 -170 -123 -1
4 -3 90 -6 190 l-4 183 29 -18 c16 -9 68 -47 115 -84 77 -60 87 -66 109 -56
14 6 23 16 21 22 -2 6 -55 48 -118 94 -63 45 -125 91 -138 101 -22 17 -28 40
-56 205 -36 216 -47 190 90 206 105 11 223 3 302 -21z m-1179 -54 c66 -19 138
-41 159 -50 l38 -17 -106 -52 c-59 -30 -150 -77 -203 -105 -110 -60 -105 -63
-85 59 23 143 40 200 59 200 10 0 72 -16 138 -35z m618 -35 c7 -24 16 -75 20
-112 l6 -67 -141 70 c-77 39 -141 75 -141 79 0 11 209 81 229 77 8 -1 20 -22
27 -47z m-135 -157 l174 -88 7 -45 c12 -79 21 -412 14 -490 l-7 -76 -119 -67
c-65 -37 -155 -84 -199 -104 l-81 -36 -137 67 c-141 69 -299 159 -341 193 -23
18 -23 21 -22 218 1 286 -5 265 104 330 161 94 355 185 396 185 27 0 85 -24
211 -87z m190 -50 c13 -16 12 -17 -3 -4 -10 7 -18 15 -18 17 0 8 8 3 21 -13z
m599 -554 c95 -128 137 -253 110 -333 -41 -125 -185 -177 -435 -156 -137 11
-165 17 -165 39 1 31 36 271 41 274 2 2 50 36 107 76 56 40 137 101 179 136
89 75 80 77 163 -36z m-1793 -1 c65 -51 148 -114 183 -139 l65 -47 22 -138
c12 -77 20 -140 18 -142 -2 -2 -45 -10 -97 -18 -241 -36 -410 0 -483 104 -25
37 -30 53 -30 105 0 52 7 76 41 147 38 78 139 220 156 220 4 0 61 -42 125 -92z
m543 -353 l45 -28 -81 -28 c-45 -15 -100 -30 -122 -34 l-40 -6 -10 63 c-6 35
-14 85 -18 112 l-7 49 94 -50 c52 -27 114 -62 139 -78z m621 0 c-5 -37 -11
-69 -13 -71 -6 -6 -158 37 -158 45 0 6 173 100 178 96 1 -1 -2 -32 -7 -70z
m-218 -169 c82 -30 151 -57 154 -60 9 -8 -15 -93 -49 -175 -84 -202 -221 -328
-331 -306 -91 19 -192 128 -266 287 -36 75 -67 167 -59 172 4 2 392 133 398
135 3 0 72 -24 153 -53z"/>
<path d="M5917 9084 c-59 -18 -129 -84 -147 -138 -7 -22 -10 -68 -8 -106 5
-88 39 -141 117 -182 140 -74 307 3 342 157 25 113 -48 236 -162 269 -63 19
-79 19 -142 0z"/>
<path d="M9540 8423 c-283 -153 -525 -357 -697 -588 -264 -353 -347 -734 -252
-1145 31 -134 74 -254 201 -565 112 -272 179 -470 208 -610 7 -33 19 -68 28
-77 8 -10 11 -18 6 -18 -6 0 -8 -50 -6 -125 3 -68 -1 -190 -7 -271 -7 -80 -10
-149 -7 -152 11 -10 67 126 92 224 19 74 27 134 31 240 10 255 -36 511 -157
875 -81 243 -131 417 -150 525 -20 117 -29 296 -18 383 16 133 24 136 31 10
11 -191 67 -411 172 -669 126 -312 190 -515 240 -765 84 -419 74 -820 -30
-1180 -164 -564 -527 -1059 -1080 -1468 -498 -368 -1054 -595 -1676 -682 -156
-22 -579 -31 -761 -16 -817 67 -1603 422 -2209 998 -415 396 -701 910 -784
1413 -39 235 -39 539 1 810 33 230 122 540 239 831 114 282 172 489 196 705 6
54 12 101 14 102 10 10 19 -109 18 -228 -1 -217 -26 -332 -166 -765 -92 -283
-140 -492 -157 -682 -20 -221 11 -437 86 -588 39 -80 44 -86 39 -50 -34 293
-27 463 30 707 35 150 57 210 234 641 138 335 191 549 191 768 0 441 -239 864
-676 1198 -164 125 -426 276 -411 238 62 -161 88 -317 94 -557 5 -187 3 -235
-16 -365 -24 -167 -81 -411 -136 -585 -111 -352 -202 -716 -240 -960 -22 -147
-31 -439 -16 -580 30 -293 100 -539 257 -908 41 -95 72 -177 70 -181 -3 -4
-48 -36 -101 -71 -52 -34 -95 -68 -95 -74 0 -33 273 -497 341 -578 l26 -32
112 54 c63 29 116 49 121 44 4 -5 45 -56 91 -114 46 -58 121 -148 168 -200 46
-52 92 -104 102 -115 18 -20 17 -23 -42 -105 -91 -126 -89 -111 -17 -186 74
-78 175 -164 353 -302 l130 -102 90 90 c50 50 94 90 97 90 4 0 40 -22 80 -49
68 -45 193 -118 351 -205 43 -24 67 -43 67 -55 0 -9 -12 -55 -26 -102 -14 -46
-28 -93 -30 -104 -5 -18 8 -27 89 -63 53 -23 137 -58 189 -78 89 -34 370 -124
386 -124 5 0 32 49 61 108 l52 108 237 -47 c130 -26 260 -51 287 -55 l50 -9 8
-115 c5 -63 10 -116 12 -118 6 -7 327 -21 470 -21 171 0 392 12 401 22 5 4 21
161 24 223 0 6 39 16 88 23 48 7 177 30 286 51 110 22 201 39 202 37 1 -1 23
-50 50 -109 26 -60 54 -108 62 -108 41 0 673 229 672 243 0 1 -15 57 -34 125
l-33 123 106 54 c58 30 173 95 254 144 l149 89 85 -89 c47 -49 90 -89 94 -89
24 0 345 258 481 388 l77 74 -26 41 c-14 23 -48 71 -74 106 l-49 63 94 102
c83 91 215 251 271 329 l20 28 110 -50 c61 -28 115 -51 122 -51 24 0 244 352
343 550 30 59 31 65 15 75 -9 5 -57 37 -105 71 l-89 60 65 144 c75 167 182
468 212 596 49 209 66 350 66 564 0 361 -48 609 -249 1285 -129 437 -164 614
-172 885 -7 235 5 357 52 545 19 76 34 140 32 141 -1 2 -41 -18 -87 -43z"/>
<path d="M5460 6927 c-34 -17 -52 -55 -46 -100 8 -72 20 -77 182 -77 l143 0 3
-757 3 -758 24 -62 c24 -67 93 -153 142 -179 50 -25 125 -35 182 -23 102 21
167 76 216 179 l26 55 5 770 5 770 137 3 c134 3 137 3 157 29 32 40 28 97 -8
134 l-29 29 -559 0 c-427 0 -564 -3 -583 -13z"/>
<path d="M7270 6924 c-324 -40 -531 -149 -613 -322 l-32 -67 0 -550 c0 -540 0
-551 22 -620 58 -184 206 -309 439 -370 134 -36 321 -44 449 -20 217 41 408
166 487 318 78 151 17 324 -144 409 -64 34 -173 32 -249 -3 -101 -48 -124 -81
-205 -299 -47 -129 -148 -200 -284 -202 -122 -2 -240 74 -297 190 -59 120 -29
268 73 362 89 82 100 84 434 90 268 6 300 8 353 27 115 43 236 157 292 276
108 227 49 472 -150 621 -94 71 -160 103 -269 131 -90 23 -239 37 -306 29z
m405 -267 c63 -32 106 -76 142 -147 24 -47 28 -66 27 -135 0 -98 -27 -173 -85
-238 -80 -92 -181 -117 -412 -102 l-117 7 0 194 c0 212 7 253 61 331 78 112
258 155 384 90z"/>
<path d="M4973 6906 c-96 -31 -170 -106 -198 -199 -22 -75 -22 -631 0 -706 20
-66 76 -124 174 -181 133 -77 189 -144 211 -253 31 -153 -49 -288 -205 -346
-149 -56 -302 5 -372 147 l-28 57 -5 615 -5 615 -27 58 c-62 133 -145 191
-272 191 -99 1 -168 -25 -227 -84 -86 -86 -84 -70 -84 -785 0 -615 0 -621 22
-691 75 -237 354 -383 734 -384 188 0 384 73 513 192 52 47 75 78 108 146 l43
85 3 646 c2 440 0 658 -8 683 -40 138 -237 240 -377 194z"/>
<path d="M3609 4798 c-23 -19 -52 -69 -44 -76 4 -4 354 -10 778 -13 825 -6
809 -5 1082 -61 201 -41 375 -113 499 -208 37 -27 70 -50 73 -50 3 0 24 15 47
33 160 129 342 198 671 254 l160 27 783 3 c430 2 782 6 782 9 0 2 -12 22 -26
44 l-27 40 -456 3 c-892 4 -1111 -4 -1349 -53 -212 -43 -397 -119 -519 -214
-71 -54 -71 -54 -90 -34 -10 11 -43 37 -73 58 -210 143 -483 216 -900 240
-266 15 -1372 13 -1391 -2z"/>
<path d="M3341 4538 c-17 -23 -31 -45 -31 -49 0 -4 379 -10 843 -12 579 -3
870 -8 932 -16 429 -58 660 -128 830 -253 33 -24 66 -47 72 -51 8 -5 33 8 64
33 189 149 506 242 954 280 67 5 466 10 903 10 l783 0 -30 44 -30 44 -423 5
c-746 8 -1149 2 -1349 -22 -394 -46 -684 -144 -831 -279 l-27 -25 -53 41
c-201 154 -504 240 -993 282 -67 5 -443 10 -852 10 l-731 0 -31 -42z"/>
<path d="M3204 4322 c-16 -11 -44 -55 -44 -68 0 -10 198 -14 858 -17 561 -3
893 -8 962 -16 310 -34 493 -71 666 -132 132 -46 213 -90 339 -183 8 -6 29 4
62 31 149 117 435 215 753 257 235 31 395 36 1212 36 557 0 828 3 828 10 0 6
-12 29 -27 51 l-27 40 -865 -4 c-558 -3 -907 -8 -981 -16 -398 -40 -723 -140
-892 -273 -47 -38 -50 -39 -71 -23 -141 103 -237 150 -406 199 -205 60 -369
87 -636 106 -160 11 -1715 14 -1731 2z"/>
<path d="M5670 3360 l0 -333 53 7 c28 4 54 11 55 17 2 5 13 9 26 9 39 0 92 45
115 100 45 104 46 322 3 407 -36 70 -94 106 -195 118 l-57 7 0 -332z"/>
<path d="M5348 3333 c-2 -192 0 -362 5 -380 17 -69 135 -213 225 -275 57 -40
179 -83 275 -98 158 -26 370 9 512 83 94 49 188 149 234 249 l39 83 4 343 3
342 -162 0 c-90 0 -163 -3 -163 -7 0 -3 34 -51 75 -106 41 -54 75 -103 75
-107 0 -12 -50 -50 -66 -50 -15 0 -97 96 -170 200 l-49 69 -82 1 -83 0 0 -325
0 -325 143 1 c87 1 130 4 112 9 -16 4 -22 8 -12 9 9 0 17 4 17 8 0 3 -24 38
-53 77 -29 39 -64 86 -77 105 l-24 34 30 23 c16 13 36 24 44 24 17 0 250 -320
250 -343 0 -18 -121 -74 -214 -99 -41 -11 -121 -22 -186 -25 -190 -9 -352 23
-447 88 l-43 30 0 348 c0 309 -2 350 -16 355 -9 3 -55 6 -104 6 l-88 0 -4
-347z"/>
<path d="M2794 10328 c14 -73 50 -178 60 -178 12 0 97 65 97 74 -1 4 -37 36
-82 72 l-82 66 7 -34z"/>
<path d="M2284 9934 c-18 -9 -42 -26 -54 -39 -22 -24 -22 -25 -5 -52 10 -15
27 -38 38 -50 18 -21 21 -21 44 -6 21 14 26 14 39 1 12 -12 13 -19 3 -42 -12
-25 -10 -30 28 -68 26 -26 47 -39 57 -35 20 8 75 84 82 114 15 59 -31 144 -97
179 -36 18 -96 18 -135 -2z"/>
<path d="M1031 8192 c-26 -25 -31 -38 -31 -78 0 -42 4 -51 39 -85 43 -40 133
-79 184 -79 62 0 114 63 103 124 -12 63 -116 133 -212 143 -49 5 -55 4 -83
-25z"/>
<path d="M11104 7009 c3 -19 9 -51 12 -71 l6 -37 57 29 c31 16 74 40 95 53 45
28 41 31 -59 42 -33 3 -73 8 -89 12 -28 5 -29 4 -22 -28z"/>
<path d="M681 6996 c-14 -17 -32 -109 -23 -117 13 -12 100 -20 106 -10 3 5 9
30 12 55 5 37 3 51 -11 66 -21 23 -67 26 -84 6z"/>
<path d="M10965 4528 c-29 -16 -35 -28 -35 -69 0 -47 48 -92 122 -114 92 -27
141 -15 163 39 17 41 10 69 -28 104 -46 44 -175 67 -222 40z"/>
<path d="M10586 3508 c44 -49 103 -102 108 -97 9 10 47 91 44 94 -3 2 -123 30
-171 40 -13 2 -7 -8 19 -37z"/>
<path d="M1598 3192 c-21 -15 -37 -30 -38 -34 0 -16 63 -78 79 -78 22 0 51 31
51 55 0 19 -38 85 -48 84 -4 0 -24 -13 -44 -27z"/>
<path d="M9765 2439 c-19 -17 -35 -37 -35 -44 0 -16 178 -185 194 -185 7 0 25
14 42 31 77 81 -2 229 -122 229 -34 0 -51 -7 -79 -31z"/>
<path d="M2975 1764 c-46 -23 -72 -52 -100 -108 -32 -64 -32 -100 0 -131 53
-54 141 -22 187 68 45 89 41 145 -13 172 -35 19 -37 18 -74 -1z"/>
<path d="M8965 1745 c-60 -32 -60 -36 -14 -111 23 -38 56 -90 74 -116 l32 -48
39 30 c66 48 78 94 45 166 -34 74 -116 111 -176 79z"/>
<path d="M8185 1230 c4 -36 9 -79 13 -96 l7 -31 52 20 53 20 -29 36 c-16 20
-46 54 -66 76 l-36 40 6 -65z"/>
<path d="M6690 877 c-63 -32 -64 -198 -2 -269 16 -18 86 -25 108 -10 48 31 44
222 -5 266 -25 22 -72 29 -101 13z"/>
<path d="M5887 829 c-63 -37 -75 -207 -20 -271 23 -26 70 -32 99 -13 75 49 74
256 -1 285 -33 13 -55 12 -78 -1z"/>
</g>
</svg>
